# xmcd
#
# Track frame offsets: 
#        150
#        36044
#        105981
#        155935
#        193863
#        224630
#
# Disc length: 3675 seconds
#
# Revision: 0
# Processed by: cddbd v1.5.2PL0 Copyright (c) Steve Scherf et al.
# Submitted via: ExactAudioCopy v0.99pb5
#
DISCID=550e5906
DTITLE=Tedeschi Trucks Band - Everybody's Talkin' (Disc-2)
DYEAR=2012
DGENRE=Blues Rock
TTITLE0=That Did It 
TTITLE1=Uptight 
TTITLE2=Love Has Something Else To Say (with Kissing My Love)
TTITLE3=Wade in the Water 
TTITLE4=Don't Let Me Slide 
TTITLE5=Simple Song/I Want To Take You Higher 
EXTD=
EXTT0=
EXTT1=
EXTT2=
EXTT3=
EXTT4=
EXTT5=
PLAYORDER=
